# xmcd CD database file generated by OrangeCD 6.2
#
# Track frame offsets:
#	150
#	13552
#	29444
#	45339
#	57372
#	74066
#	90442
#	106820
#	124143
#	139834
#	154216
#	170361
#	189315
#	202781
#	218102
#	234487
#
# Disc length: 3361 seconds
#
# Revision: 0
# Processed by: cddbd v1.5.2PL0 Copyright (c) Steve Scherf et al.
# Submitted via: OrangeCD 6.2
#
DISCID=d40d1f10
DTITLE=Various Artist - Latino Total
DYEAR=1900
DGENRE=
TTITLE0=Luis Mirio - Fiesta (House Party)
TTITLE1=Gabriela - Loca
TTITLE2=Banda Caliente - Una Noche Loca
TTITLE3=XTC Planet - Chacarron "Shark Around"
TTITLE4=Banda Caliente - Pideme
TTITLE5=Bob Bass feat. Reverse - Hips Don't Lie
TTITLE6=Banda Caliente - La Camisa Negra
TTITLE7=Luis Miro - Tesouro Do Pirata
TTITLE8=Banda Caliente - Todavia
TTITLE9=Banda Caliente - Que Te Den Candela
TTITLE10=Bob Bass feat. Reverse - La Tortura
TTITLE11=Banda Caliente - Mariacaipiriniha
TTITLE12=Grupe Fantasia - Girando Sin Parar
TTITLE13=Banda Caliente - Si Te Veo
TTITLE14=Randy F - As De Corazones
TTITLE15=XTX Planet -  Drop It On Me
EXTD=
EXTT0=
EXTT1=
EXTT2=
EXTT3=
EXTT4=
EXTT5=
EXTT6=
EXTT7=
EXTT8=
EXTT9=
EXTT10=
EXTT11=
EXTT12=
EXTT13=
EXTT14=
EXTT15=
PLAYORDER=
